<svg xmlns="http://www.w3.org/2000/svg" width="1200" height="675" viewBox="0 0 1200 675" fill="none">
  <rect width="1200" height="675" fill="#FAF7F2"/>
  <rect x="250" y="52" width="700" height="571" rx="18" fill="white" stroke="#E7DDCF"/>
  <rect x="250" y="52" width="700" height="90" rx="18" fill="#3D4F61"/>
  <rect x="292" y="96" width="280" height="16" rx="8" fill="#FFFFFF"/>
  <rect x="292" y="124" width="190" height="10" rx="5" fill="#D7C8B2"/>
  <rect x="292" y="184" width="190" height="12" rx="6" fill="#3D4F61"/>
  <rect x="292" y="210" width="616" height="10" rx="5" fill="#EEE7DB"/>
  <rect x="292" y="230" width="616" height="10" rx="5" fill="#EEE7DB"/>
  <rect x="292" y="270" width="190" height="12" rx="6" fill="#3D4F61"/>
  <rect x="292" y="296" width="616" height="10" rx="5" fill="#EEE7DB"/>
  <rect x="292" y="316" width="616" height="10" rx="5" fill="#EEE7DB"/>
  <rect x="292" y="356" width="190" height="12" rx="6" fill="#3D4F61"/>
  <rect x="292" y="382" width="616" height="10" rx="5" fill="#EEE7DB"/>
  <rect x="292" y="402" width="430" height="10" rx="5" fill="#EEE7DB"/>
  <text x="292" y="560" fill="#3D4F61" font-family="Inter, Arial, sans-serif" font-size="28" font-weight="700">Elegant Consulting</text>
</svg>
