<svg xmlns="http://www.w3.org/2000/svg" width="1200" height="675" viewBox="0 0 1200 675" fill="none">
  <rect width="1200" height="675" fill="#F8FAFB"/>
  <rect x="250" y="52" width="700" height="571" rx="8" fill="white" stroke="#C8D3DC"/>
  <rect x="290" y="98" width="250" height="14" rx="7" fill="#1A2534"/>
  <rect x="290" y="126" width="180" height="10" rx="5" fill="#6B7A8D"/>
  <rect x="290" y="170" width="620" height="2" fill="#E2E8EE"/>
  <rect x="290" y="196" width="190" height="12" rx="6" fill="#3D4F61"/>
  <rect x="290" y="222" width="620" height="10" rx="5" fill="#E2E8EE"/>
  <rect x="290" y="242" width="620" height="10" rx="5" fill="#E2E8EE"/>
  <rect x="290" y="282" width="190" height="12" rx="6" fill="#3D4F61"/>
  <rect x="290" y="308" width="620" height="10" rx="5" fill="#E2E8EE"/>
  <rect x="290" y="328" width="620" height="10" rx="5" fill="#E2E8EE"/>
  <rect x="290" y="368" width="190" height="12" rx="6" fill="#3D4F61"/>
  <rect x="290" y="394" width="620" height="10" rx="5" fill="#E2E8EE"/>
  <rect x="290" y="414" width="480" height="10" rx="5" fill="#E2E8EE"/>
  <text x="290" y="560" fill="#3D4F61" font-family="Inter, Arial, sans-serif" font-size="28" font-weight="600">Classic Corporate</text>
</svg>
