<svg xmlns="http://www.w3.org/2000/svg" width="1200" height="675" viewBox="0 0 1200 675" fill="none">
  <rect width="1200" height="675" fill="#0F172A"/>
  <rect x="238" y="52" width="724" height="571" rx="16" fill="#111827" stroke="#334155"/>
  <rect x="238" y="52" width="724" height="94" rx="16" fill="#1D4ED8"/>
  <rect x="278" y="96" width="260" height="16" rx="8" fill="#E2E8F0"/>
  <rect x="278" y="126" width="190" height="10" rx="5" fill="#93C5FD"/>
  <rect x="278" y="184" width="170" height="12" rx="6" fill="#38BDF8"/>
  <rect x="278" y="210" width="644" height="10" rx="5" fill="#334155"/>
  <rect x="278" y="230" width="644" height="10" rx="5" fill="#334155"/>
  <rect x="278" y="270" width="170" height="12" rx="6" fill="#38BDF8"/>
  <rect x="278" y="296" width="644" height="10" rx="5" fill="#334155"/>
  <rect x="278" y="316" width="644" height="10" rx="5" fill="#334155"/>
  <rect x="278" y="356" width="170" height="12" rx="6" fill="#38BDF8"/>
  <rect x="278" y="382" width="644" height="10" rx="5" fill="#334155"/>
  <rect x="278" y="402" width="500" height="10" rx="5" fill="#334155"/>
  <text x="278" y="560" fill="#E2E8F0" font-family="Inter, Arial, sans-serif" font-size="28" font-weight="700">Technical Product</text>
</svg>
